{"glyphs":{":":{"x_min":0,"x_max":197,"ha":197,"o":"m 55 313 q 55 332 67 344 q 79 355 99 355 q 120 355 132 344 q 143 333 143 313 q 143 293 132 282 q 120 270 99 270 q 79 270 67 282 q 55 294 55 313 z m 55 32 q 55 51 67 62 q 79 74 99 74 q 120 74 132 63 q 143 52 143 32 q 143 12 132 0 q 120 -11 99 -11 q 79 -11 67 1 q 55 13 55 32 z"},"$":{"x_min":0,"x_max":498,"ha":498,"o":"m 270 -10 l 270 -108 q 270 -115 260 -115 q 249 -115 249 -108 l 249 -12 l 231 -12 q 154 -12 90 23 q 85 26 84 30 q 82 34 81 42 l 68 178 q 67 182 72 183 q 78 184 79 180 q 95 109 137 58 q 179 6 249 4 l 249 289 l 227 302 q 179 331 152 352 q 124 373 105 405 q 86 437 86 480 q 86 548 134 588 q 181 628 249 635 l 249 719 q 249 723 252 725 q 255 727 260 727 q 264 727 267 725 q 270 723 270 719 l 270 636 l 272 636 q 331 636 389 612 q 404 607 404 595 l 411 480 q 411 476 406 476 q 401 476 400 480 q 392 529 360 572 q 329 615 270 620 l 270 352 q 272 350 286 342 q 338 311 367 290 q 396 269 416 236 q 437 204 437 159 q 437 93 393 46 q 349 0 270 -10 z m 249 365 l 249 621 q 197 619 171 586 q 145 554 145 508 q 145 461 172 428 q 199 396 249 365 z m 373 119 q 373 173 346 208 q 319 244 270 276 l 270 5 q 315 9 344 36 q 373 64 373 119 z"},"?":{"x_min":0,"x_max":329,"ha":329,"o":"m 116 565 q 112 545 104 533 q 96 521 77 521 q 61 521 52 532 q 43 542 43 555 q 43 584 78 604 q 113 625 162 625 q 221 625 260 594 q 298 563 298 505 q 298 475 287 452 q 276 428 262 414 q 249 399 221 372 q 186 338 172 310 q 158 283 158 248 q 158 226 164 193 q 165 190 159 189 q 153 188 152 191 q 141 217 134 252 q 126 288 126 310 q 126 341 138 362 q 151 383 175 407 q 202 434 216 457 q 229 480 229 517 q 229 560 210 586 q 190 612 159 612 q 135 612 126 600 q 118 587 116 565 z m 103 32 q 103 51 115 62 q 127 74 147 74 q 168 74 180 63 q 191 52 191 32 q 191 12 180 0 q 168 -11 147 -11 q 127 -11 115 1 q 103 13 103 32 z"},"<":{"x_min":0,"x_max":407,"ha":407,"o":"m 377 42 q 377 22 370 25 l 36 173 q 31 176 31 190 q 31 205 36 207 l 370 354 q 373 356 375 351 q 377 346 377 338 q 377 318 370 314 l 79 190 l 370 66 q 377 63 377 42 z"},"'":{"x_min":0,"x_max":140,"ha":140,"o":"m 43 608 q 42 619 68 630 q 94 640 111 640 q 120 640 119 636 l 67 366 q 65 364 60 363 q 55 362 55 365 z"},"=":{"x_min":0,"x_max":468,"ha":468,"o":"m 29 261 q 29 268 30 274 q 32 279 33 279 l 434 279 q 436 279 438 273 q 439 267 439 260 q 439 253 438 246 q 436 240 434 240 l 34 240 q 32 240 30 246 q 29 253 29 261 z m 29 121 q 29 128 30 134 q 32 139 33 139 l 434 139 q 436 139 438 133 q 439 127 439 120 q 439 113 438 106 q 436 100 434 100 l 34 100 q 32 100 30 106 q 29 113 29 121 z"},"a":{"x_min":0,"x_max":490,"ha":490,"o":"m 483 58 q 487 58 488 54 q 490 49 486 48 l 370 -8 q 368 -9 365 -9 q 356 -9 348 14 q 339 38 338 74 q 301 36 263 13 q 225 -10 180 -10 q 119 -10 78 35 q 36 80 36 161 q 36 233 70 287 q 104 341 156 370 q 207 399 259 399 q 315 399 356 369 q 374 379 384 395 q 385 397 389 396 q 393 394 393 392 l 393 107 q 393 73 401 58 q 409 44 428 44 q 445 44 481 58 z m 338 90 l 338 294 q 338 331 306 355 q 274 379 234 379 q 175 379 138 326 q 102 274 102 190 q 102 115 132 69 q 163 23 214 23 q 247 23 278 42 q 308 60 338 90 z"},"L":{"x_min":0,"x_max":533,"ha":533,"o":"m 185 85 q 185 56 191 43 q 197 30 213 26 q 229 21 265 21 l 374 21 q 431 21 465 56 q 499 91 510 153 q 510 156 516 156 q 521 155 521 152 q 512 69 512 15 q 512 7 509 4 q 506 0 497 0 l 35 0 q 33 0 33 6 q 33 12 35 12 q 73 12 90 17 q 108 22 114 36 q 120 51 120 81 l 120 544 q 120 574 114 588 q 108 602 90 608 q 73 613 35 613 q 33 613 33 619 q 33 625 35 625 l 84 624 q 126 622 152 622 q 180 622 222 624 l 270 625 q 273 625 273 619 q 273 613 270 613 q 233 613 216 608 q 198 602 192 588 q 185 573 185 543 z"},"3":{"x_min":0,"x_max":435,"ha":435,"o":"m 387 175 q 387 120 363 78 q 339 35 296 12 q 253 -12 199 -12 q 106 -12 37 63 l 36 65 q 36 69 40 72 q 45 74 47 71 q 73 43 110 29 q 146 15 183 15 q 251 15 284 58 q 317 100 317 168 q 317 324 135 324 q 134 324 132 326 q 131 329 131 332 q 131 335 132 338 q 134 340 135 340 q 223 340 260 375 q 297 410 297 472 q 297 532 267 564 q 237 597 183 597 q 141 597 104 576 q 66 556 48 517 q 48 516 46 516 q 43 516 40 518 q 36 520 37 522 q 60 576 105 606 q 150 636 210 636 q 281 636 321 596 q 361 557 361 498 q 361 446 330 402 q 298 357 244 337 q 311 333 349 287 q 387 241 387 175 z"},";":{"x_min":0,"x_max":224,"ha":224,"o":"m 57 313 q 57 332 69 344 q 81 355 101 355 q 122 355 134 344 q 145 333 145 313 q 145 293 134 282 q 122 270 101 270 q 81 270 69 282 q 57 294 57 313 z m 168 -16 q 168 -56 150 -90 q 132 -125 97 -159 q 96 -160 94 -160 q 91 -160 89 -157 q 87 -154 89 -152 q 138 -102 138 -34 q 138 -6 128 7 q 119 -8 97 -8 q 79 -8 68 3 q 58 14 58 31 q 58 71 104 71 q 134 71 151 48 q 168 26 168 -16 z"},"J":{"x_min":0,"x_max":322,"ha":322,"o":"m 280 613 q 247 613 232 607 q 217 601 212 586 q 206 572 206 542 l 206 -28 q 206 -127 160 -186 q 114 -244 27 -244 q -7 -244 -26 -232 q -46 -221 -46 -201 q -46 -186 -37 -177 q -28 -168 -12 -168 q 5 -168 14 -176 q 23 -183 33 -198 q 42 -212 49 -218 q 56 -224 69 -224 q 105 -224 122 -182 q 140 -141 140 -49 l 140 544 q 140 574 133 588 q 126 602 106 608 q 85 613 42 613 q 40 613 40 619 q 40 625 42 625 l 100 624 q 146 622 172 622 q 198 622 236 624 l 280 625 q 282 625 282 619 q 282 613 280 613 z"},"V":{"x_min":0,"x_max":666,"ha":666,"o":"m 669 613 q 635 613 610 595 q 585 577 568 534 l 355 1 q 354 -3 344 -3 q 336 -3 333 1 l 84 542 q 67 581 48 597 q 29 613 -1 613 q -4 613 -4 619 q -4 625 -1 625 l 37 624 q 65 622 82 622 q 122 622 168 624 l 209 625 q 212 625 212 619 q 212 613 209 613 q 178 613 162 605 q 147 597 147 578 q 147 566 156 546 l 365 88 l 545 539 q 553 560 553 572 q 553 593 534 603 q 515 613 475 613 q 472 613 472 619 q 472 625 475 625 l 518 624 q 552 622 580 622 q 601 622 627 624 l 669 625 q 672 625 672 619 q 672 613 669 613 z"},"\"":{"x_min":0,"x_max":283,"ha":283,"o":"m 43 608 q 42 619 68 630 q 94 640 111 640 q 120 640 119 636 l 67 366 q 65 364 60 363 q 55 362 55 365 z m 185 608 q 184 619 210 630 q 236 640 253 640 q 262 640 261 636 l 209 366 q 207 364 202 363 q 197 362 197 365 z"},"7":{"x_min":0,"x_max":429,"ha":429,"o":"m 156 0 l 112 0 q 108 0 105 3 q 102 6 104 10 l 351 565 q 355 572 346 572 q 197 572 140 568 q 82 564 64 552 q 47 539 36 504 q 36 501 31 501 q 29 501 26 502 q 24 504 25 506 l 59 651 q 60 654 66 654 q 72 653 71 650 q 70 646 70 640 q 70 631 80 628 q 89 625 118 625 l 383 625 q 387 625 390 620 q 394 615 392 612 l 177 22 q 172 9 168 4 q 164 0 156 0 z"},"S":{"x_min":0,"x_max":491,"ha":491,"o":"m 286 342 q 338 311 367 290 q 396 269 416 236 q 437 204 437 159 q 437 111 413 72 q 389 33 342 10 q 296 -12 231 -12 q 154 -12 90 23 q 85 26 84 30 q 82 34 81 42 l 68 178 q 67 182 72 183 q 78 184 79 180 q 95 108 138 56 q 182 4 254 4 q 304 4 338 32 q 373 59 373 119 q 373 164 353 197 q 333 230 304 252 q 276 273 227 302 q 179 331 152 352 q 124 373 105 405 q 86 437 86 480 q 86 530 112 566 q 139 601 182 618 q 224 636 272 636 q 331 636 389 612 q 404 607 404 595 l 411 480 q 411 476 406 476 q 401 476 400 480 q 392 532 357 576 q 322 621 256 621 q 200 621 172 588 q 145 556 145 508 q 145 469 164 440 q 183 411 210 392 q 237 372 286 342 z"},"}":{"x_min":0,"x_max":283,"ha":283,"o":"m 172 80 q 172 -6 161 -47 q 150 -88 122 -102 q 93 -117 33 -117 q 29 -117 29 -111 q 29 -105 33 -105 q 69 -105 88 -78 q 108 -50 109 1 q 111 122 117 172 q 123 222 145 252 q 167 281 219 305 q 166 328 144 356 q 123 385 117 435 q 111 485 109 607 q 108 658 88 686 q 69 713 33 713 q 29 713 29 719 q 29 725 33 725 q 92 725 121 710 q 150 696 161 656 q 172 615 172 529 q 172 434 188 376 q 203 317 251 311 q 254 311 254 304 q 254 298 251 298 q 203 292 188 234 q 172 176 172 80 z"},"Z":{"x_min":0,"x_max":595,"ha":595,"o":"m 450 600 q 453 605 452 606 q 452 608 445 608 q 267 608 202 602 q 137 597 111 576 q 85 555 64 497 q 64 495 60 495 q 57 495 54 496 q 51 498 52 499 l 92 655 q 92 656 96 656 q 106 656 104 653 q 103 650 103 645 q 103 633 114 629 q 126 625 161 625 l 526 625 q 531 625 534 620 q 536 615 533 612 l 143 27 l 140 21 q 140 19 148 19 l 403 19 q 470 19 505 47 q 540 75 551 135 q 552 137 557 137 q 562 137 562 135 l 548 8 q 548 5 546 2 q 543 -2 539 -2 q 390 0 61 0 q 56 0 54 4 q 52 9 55 13 z"},"x":{"x_min":0,"x_max":439,"ha":439,"o":"m 427 0 l 395 1 q 384 2 363 2 l 299 1 q 284 0 259 0 q 256 0 256 6 q 256 12 259 12 q 277 12 284 14 q 292 17 292 24 q 292 33 280 51 l 204 166 l 144 80 q 124 50 124 36 q 124 24 138 18 q 151 12 181 12 q 184 12 184 6 q 184 0 181 0 q 154 0 141 1 l 81 2 l 45 1 q 35 0 13 0 q 11 0 11 6 q 11 12 13 12 q 39 12 70 31 q 100 50 126 86 l 194 181 l 113 303 q 89 340 63 357 q 37 374 16 374 q 14 374 14 380 q 14 386 16 386 q 37 386 47 385 l 78 384 l 142 385 q 156 386 181 386 q 183 386 183 380 q 183 374 181 374 q 164 374 156 372 q 148 369 148 362 q 148 355 161 335 l 230 231 l 281 306 q 302 337 302 351 q 302 363 288 368 q 275 374 244 374 q 242 374 242 380 q 242 386 244 386 q 271 386 285 385 l 345 384 l 381 385 q 391 386 413 386 q 415 386 415 380 q 415 374 413 374 q 386 374 356 356 q 327 337 300 300 l 239 217 l 328 83 q 353 45 380 28 q 406 12 427 12 q 429 12 429 6 q 429 0 427 0 z"},")":{"x_min":0,"x_max":309,"ha":309,"o":"m 35 -117 q 33 -118 31 -116 q 29 -113 31 -111 q 105 -41 140 62 q 174 166 174 304 q 174 442 140 546 q 105 649 31 719 q 29 720 31 723 q 33 726 35 725 q 134 671 189 558 q 244 446 244 304 q 244 162 189 49 q 134 -64 35 -117 z"},"&":{"x_min":0,"x_max":697,"ha":697,"o":"m 697 0 l 589 0 q 544 0 452 72 q 371 -12 250 -12 q 188 -12 146 9 q 105 30 84 64 q 64 98 64 137 q 64 194 100 236 q 135 279 202 328 q 184 355 173 378 q 144 442 144 487 q 144 530 165 566 q 186 603 224 624 q 262 646 310 646 q 358 646 392 623 q 427 600 427 547 q 427 508 407 476 q 387 444 358 420 q 328 396 279 364 q 277 363 262 353 q 332 239 475 130 q 510 191 510 265 q 510 301 496 319 q 481 337 439 337 q 436 337 436 343 q 435 349 439 349 l 648 350 q 652 350 652 344 q 652 338 648 338 q 614 338 597 332 q 580 325 573 314 q 566 303 559 279 q 530 180 490 119 q 549 76 604 48 q 659 20 697 12 q 701 11 700 6 q 700 0 697 0 z m 254 365 q 309 406 338 444 q 368 483 368 531 q 368 575 344 600 q 321 625 281 625 q 202 625 202 529 q 202 452 254 365 z m 440 82 q 434 86 422 96 q 362 142 306 200 q 250 258 211 316 q 172 284 150 250 q 128 215 128 172 q 128 130 150 94 q 171 59 210 38 q 248 18 295 18 q 337 18 374 35 q 411 52 440 82 z"},"_":{"x_min":0,"x_max":398,"ha":398,"o":"m 29 -55 q 29 -48 30 -42 q 31 -36 33 -36 l 364 -36 q 366 -36 368 -42 q 369 -49 369 -56 q 369 -63 368 -70 q 366 -76 364 -76 l 34 -76 q 32 -76 30 -70 q 29 -63 29 -55 z"},"v":{"x_min":0,"x_max":434,"ha":434,"o":"m 431 374 q 405 374 388 358 q 370 342 354 301 l 229 1 q 227 -4 218 -4 q 209 -4 207 1 l 67 303 q 47 346 34 360 q 20 374 0 374 q -3 374 -3 380 q -3 386 0 386 q 20 386 31 385 l 69 384 l 134 385 q 149 386 174 386 q 177 386 177 380 q 177 374 174 374 q 114 374 114 350 q 114 343 118 335 l 240 77 l 334 306 q 341 325 341 335 q 341 355 322 364 q 303 374 262 374 q 260 374 260 380 q 260 386 262 386 q 289 386 303 385 l 363 384 l 398 385 q 408 386 431 386 q 433 386 433 380 q 433 374 431 374 z"},"O":{"x_min":0,"x_max":766,"ha":766,"o":"m 49 312 q 49 415 101 488 q 153 562 234 599 q 316 636 401 636 q 496 636 568 592 q 640 547 678 474 q 717 401 717 319 q 717 228 669 152 q 621 76 540 32 q 460 -12 366 -12 q 273 -12 200 32 q 128 75 88 150 q 49 224 49 312 z m 641 291 q 641 385 606 458 q 571 531 508 572 q 444 613 359 613 q 249 613 187 542 q 125 471 125 347 q 125 253 160 176 q 195 98 258 54 q 321 9 401 9 q 469 9 524 42 q 578 75 610 139 q 641 203 641 291 z"},"(":{"x_min":0,"x_max":309,"ha":309,"o":"m 274 725 q 276 726 278 724 q 280 721 278 719 q 204 649 170 546 q 135 442 135 304 q 135 166 170 62 q 204 -41 278 -111 q 280 -112 278 -115 q 276 -118 274 -117 q 175 -63 120 50 q 65 162 65 304 q 65 446 120 559 q 175 672 274 725 z"},"C":{"x_min":0,"x_max":669,"ha":669,"o":"m 590 601 q 599 597 602 592 q 604 588 605 577 l 616 465 q 616 462 611 462 q 606 461 605 464 q 583 541 524 578 q 464 614 376 614 q 300 614 243 580 q 186 547 155 486 q 124 425 124 345 q 124 252 162 173 q 201 94 266 48 q 332 2 408 2 q 480 2 533 42 q 586 81 614 163 q 614 166 618 166 q 621 166 624 165 q 626 164 626 162 l 612 49 q 610 37 608 34 q 605 30 596 26 q 506 -12 406 -12 q 286 -12 206 36 q 125 85 87 160 q 49 235 49 318 q 49 410 100 483 q 151 556 235 596 q 319 636 415 636 q 463 636 512 627 q 561 618 590 601 z"},"W":{"x_min":0,"x_max":920,"ha":920,"o":"m 924 613 q 845 613 823 534 l 667 1 q 667 -3 656 -3 q 646 -3 645 1 l 454 521 l 298 1 q 298 -3 287 -3 q 278 -3 275 1 l 84 542 q 71 581 51 597 q 31 613 -1 613 q -4 613 -4 619 q -4 625 -1 625 l 37 624 q 65 622 82 622 q 134 622 184 624 q 199 625 224 625 q 227 625 227 619 q 227 613 224 613 q 147 613 147 570 q 147 561 152 546 l 307 109 l 461 625 q 463 628 472 628 q 483 628 483 625 l 675 107 l 799 537 q 803 549 803 561 q 803 613 709 613 q 706 613 706 619 q 706 625 709 625 l 759 624 q 803 622 835 622 q 855 622 881 624 l 924 625 q 926 625 926 619 q 926 613 924 613 z"},"A":{"x_min":0,"x_max":702,"ha":702,"o":"m 699 0 q 680 0 640 2 q 600 4 582 4 q 560 4 526 2 q 494 0 477 0 q 473 0 473 6 q 473 12 477 12 q 514 12 531 19 q 548 26 548 43 q 548 57 535 86 l 420 331 l 231 331 l 145 127 q 131 93 131 71 q 131 12 229 12 q 234 12 234 6 q 234 0 229 0 q 211 0 177 2 q 139 4 111 4 q 85 4 51 2 q 21 0 1 0 q -4 0 -4 6 q -4 12 1 12 q 29 12 48 22 q 68 33 86 60 q 103 86 124 136 l 335 634 q 337 637 342 637 q 347 637 348 634 l 584 137 q 618 63 642 38 q 666 12 699 12 q 703 12 703 6 q 703 0 699 0 z m 240 352 l 410 352 l 320 542 z"},"f":{"x_min":0,"x_max":305,"ha":305,"o":"m 435 673 q 435 658 424 650 q 414 641 400 641 q 388 641 379 647 q 370 653 360 667 q 345 688 328 698 q 310 709 284 709 q 226 709 192 642 q 158 575 158 439 l 158 375 q 204 376 286 385 q 289 385 291 378 q 293 371 293 361 q 293 353 290 344 q 287 336 283 337 q 225 351 158 353 l 158 81 q 158 50 165 36 q 172 22 192 17 q 212 12 256 12 q 259 12 259 6 q 259 0 256 0 l 192 1 q 171 2 128 2 l 72 1 q 58 0 32 0 q 29 0 29 6 q 29 12 32 12 q 62 12 76 18 q 90 23 96 37 q 101 51 101 81 l 101 306 q 101 332 96 342 q 91 353 76 356 q 62 360 28 360 q 25 360 25 366 q 25 373 28 373 q 69 373 84 382 q 98 392 99 418 q 104 580 158 653 q 213 726 319 726 q 370 726 402 710 q 435 695 435 673 z"},"Q":{"x_min":0,"x_max":766,"ha":766,"o":"m 746 -161 q 748 -161 750 -166 q 751 -170 749 -171 q 698 -183 664 -183 q 595 -183 518 -138 q 442 -92 386 -11 q 379 -12 366 -12 q 273 -12 200 32 q 128 75 88 150 q 49 224 49 312 q 49 415 101 488 q 153 562 234 599 q 316 636 401 636 q 496 636 568 592 q 640 547 678 474 q 717 401 717 319 q 717 245 684 180 q 652 114 595 68 q 538 22 466 2 q 508 -70 578 -116 q 647 -163 709 -163 q 727 -163 745 -161 z m 401 9 q 469 9 524 42 q 578 75 610 139 q 641 203 641 291 q 641 385 606 458 q 571 531 508 572 q 444 613 359 613 q 249 613 187 542 q 125 471 125 347 q 125 253 160 176 q 195 98 258 54 q 321 9 401 9 z"},"w":{"x_min":0,"x_max":669,"ha":669,"o":"m 664 374 q 639 374 621 358 q 603 342 588 301 l 475 1 q 475 -3 464 -3 q 455 -3 452 1 l 319 303 l 214 1 q 213 -3 203 -3 q 194 -3 191 1 l 67 303 q 49 346 34 360 q 20 374 0 374 q -3 374 -3 380 q -3 386 0 386 q 20 386 31 385 l 69 384 l 129 385 q 144 386 172 386 q 175 386 175 380 q 175 374 172 374 q 144 374 129 368 q 114 363 114 350 q 114 343 118 335 l 222 85 l 326 386 q 329 390 338 390 q 348 390 349 386 l 484 78 l 568 306 q 574 323 574 335 q 574 355 556 364 q 537 374 496 374 q 494 374 494 380 q 494 386 496 386 q 523 386 537 385 l 597 384 l 633 385 q 643 386 664 386 q 667 386 667 380 q 667 374 664 374 z"},"-":{"x_min":0,"x_max":323,"ha":323,"o":"m 27 188 q 27 207 30 207 l 291 254 q 293 255 294 248 q 296 242 296 234 q 296 214 291 212 l 32 165 q 30 164 28 172 q 27 180 27 188 z"},"E":{"x_min":0,"x_max":537,"ha":537,"o":"m 479 151 q 482 151 484 150 q 487 149 487 147 q 478 84 478 15 q 478 7 474 4 q 471 0 462 0 l 43 0 q 41 0 41 6 q 41 12 43 12 q 81 12 98 17 q 116 22 122 36 q 129 51 129 81 l 129 544 q 129 574 122 588 q 116 602 98 608 q 81 613 43 613 q 41 613 41 619 q 41 625 43 625 l 445 625 q 454 625 454 616 l 456 493 q 456 490 451 490 q 446 489 445 492 q 442 545 413 574 q 384 604 336 604 l 275 604 q 240 604 224 598 q 207 593 200 580 q 194 566 194 539 l 194 336 l 316 336 q 364 336 384 352 q 405 368 405 406 q 405 408 411 408 q 417 408 417 406 l 416 325 q 416 296 417 281 l 418 233 q 418 231 412 231 q 406 231 406 233 q 406 277 384 296 q 363 315 313 315 l 194 315 l 194 85 q 194 57 200 44 q 206 31 222 26 q 238 21 272 21 l 352 21 q 400 21 432 55 q 464 89 475 149 q 475 151 479 151 z"},"s":{"x_min":0,"x_max":338,"ha":338,"o":"m 191 226 q 226 208 246 195 q 265 182 279 161 q 293 140 293 110 q 293 59 255 24 q 217 -11 152 -11 q 99 -11 56 19 q 50 23 50 31 l 48 109 q 48 112 54 112 q 59 113 60 110 q 79 60 110 34 q 140 8 180 8 q 211 8 228 22 q 246 37 246 66 q 246 94 234 114 q 221 133 203 144 q 185 156 154 172 q 121 188 102 201 q 82 214 68 235 q 55 256 55 287 q 55 341 96 370 q 136 398 191 398 q 231 398 264 383 q 270 381 272 378 q 273 376 273 372 q 273 352 272 341 l 271 299 q 271 297 265 297 q 259 297 259 299 q 259 320 243 338 q 227 357 203 368 q 179 379 155 379 q 129 379 114 366 q 100 352 100 325 q 100 290 123 270 q 146 249 191 226 z"},">":{"x_min":0,"x_max":407,"ha":407,"o":"m 376 189 q 376 175 371 172 l 37 25 q 34 24 32 28 q 30 33 30 41 q 30 49 32 56 q 34 64 37 65 l 328 189 l 37 313 q 34 314 32 322 q 30 329 30 337 q 30 345 32 350 q 34 356 37 354 l 371 206 q 376 204 376 189 z"},"l":{"x_min":0,"x_max":258,"ha":258,"o":"m 40 12 q 67 12 80 18 q 93 23 98 38 q 103 52 103 81 l 103 598 q 103 634 96 650 q 89 666 71 666 q 56 666 25 652 l 23 652 q 20 652 18 657 q 17 662 20 663 l 148 724 q 150 725 153 725 q 155 725 158 722 q 162 720 162 717 l 162 81 q 162 52 166 38 q 171 24 184 18 q 197 12 224 12 q 227 12 227 6 q 227 0 224 0 q 202 0 188 1 l 132 2 l 78 1 q 64 0 40 0 q 37 0 37 6 q 37 12 40 12 z"},"8":{"x_min":0,"x_max":490,"ha":490,"o":"m 451 161 q 451 108 424 68 q 396 29 350 8 q 303 -13 246 -13 q 185 -13 140 10 q 95 32 71 71 q 47 110 47 158 q 47 220 88 274 q 128 328 187 358 q 146 388 124 420 q 103 452 103 497 q 103 540 126 572 q 149 603 186 620 q 223 636 262 636 q 304 636 337 619 q 370 602 388 573 q 407 544 407 510 q 407 465 381 426 q 355 386 311 354 q 378 314 414 272 q 451 229 451 161 z m 155 531 q 155 492 174 462 q 193 433 220 413 q 247 393 297 363 l 298 363 q 348 419 348 498 q 348 556 318 588 q 287 619 241 619 q 203 619 179 594 q 155 569 155 531 z m 395 134 q 395 180 374 214 q 353 248 324 270 q 294 292 241 324 q 233 329 222 336 q 212 342 200 350 q 158 322 136 278 q 115 234 115 181 q 115 105 158 55 q 201 5 271 5 q 328 5 362 39 q 395 73 395 134 z"},"\\":{"x_min":0,"x_max":341,"ha":341,"o":"m 26 718 q 24 723 42 728 q 61 734 63 730 l 315 -152 q 317 -156 298 -162 q 279 -167 277 -163 z"},"e":{"x_min":0,"x_max":408,"ha":408,"o":"m 364 56 q 367 56 370 52 q 372 49 370 46 q 302 -12 224 -12 q 165 -12 122 15 q 79 42 58 86 q 36 129 36 180 q 36 240 64 289 q 93 338 142 366 q 191 395 251 395 q 305 395 335 368 q 365 342 365 296 q 365 284 362 278 q 360 273 353 273 l 107 271 q 102 244 102 219 q 102 132 144 78 q 186 23 260 23 q 317 23 363 56 z m 110 285 l 296 289 q 296 330 274 352 q 253 375 217 375 q 176 375 148 352 q 121 328 110 285 z"},"b":{"x_min":0,"x_max":510,"ha":510,"o":"m 473 214 q 473 142 442 90 q 410 39 360 13 q 309 -13 253 -13 q 176 -13 117 31 l 41 -5 l 39 -5 q 35 -5 34 -1 q 33 3 36 5 q 68 27 81 46 q 94 66 94 103 l 94 597 q 94 633 86 649 q 79 665 61 665 q 47 665 16 652 l 14 652 q 11 652 10 657 q 8 662 11 663 l 136 724 l 141 725 q 143 725 146 722 q 150 720 150 717 l 150 312 q 188 352 226 376 q 264 399 312 399 q 355 399 392 378 q 429 357 451 316 q 473 274 473 214 z m 407 180 q 407 270 372 318 q 337 366 279 366 q 245 366 214 348 q 183 329 150 296 l 150 132 q 150 88 172 60 q 193 32 224 19 q 255 6 284 6 q 342 6 374 51 q 407 96 407 180 z"},"%":{"x_min":0,"x_max":574,"ha":574,"o":"m 27 433 q 27 486 62 523 q 97 560 150 560 q 202 560 236 522 q 270 485 270 430 q 270 376 236 340 q 202 303 150 303 q 97 303 62 340 q 27 378 27 433 z m 105 -6 q 100 -6 90 -1 q 81 4 82 7 l 453 551 l 455 552 q 460 552 469 546 q 478 540 477 537 l 106 -6 z m 212 423 q 212 485 195 517 q 178 549 144 549 q 110 549 98 519 q 85 489 85 436 q 85 314 157 314 q 190 314 201 342 q 212 369 212 423 z m 304 125 q 304 178 339 216 q 374 253 427 253 q 479 253 513 215 q 547 177 547 123 q 547 69 513 32 q 479 -5 427 -5 q 374 -5 339 32 q 304 70 304 125 z m 489 116 q 489 241 421 241 q 388 241 376 212 q 363 182 363 129 q 363 7 434 7 q 467 7 478 34 q 489 62 489 116 z"},"m":{"x_min":0,"x_max":763,"ha":763,"o":"m 742 0 q 719 0 705 1 l 651 2 l 597 1 q 583 0 560 0 q 557 0 557 6 q 557 12 560 12 q 587 12 600 18 q 613 23 618 38 q 623 52 623 81 l 623 240 q 623 299 602 328 q 581 356 537 356 q 507 356 476 340 q 446 323 420 293 q 421 288 421 277 l 421 81 q 421 51 426 37 q 431 23 444 18 q 457 12 484 12 q 487 12 487 6 q 487 0 484 0 q 461 0 447 1 l 393 2 l 338 1 q 325 0 302 0 q 299 0 299 6 q 299 12 302 12 q 329 12 342 18 q 355 23 360 37 q 364 51 364 81 l 364 240 q 364 299 343 328 q 322 356 279 356 q 249 356 219 340 q 189 324 164 295 l 164 81 q 164 51 168 37 q 173 23 186 18 q 199 12 226 12 q 229 12 229 6 q 229 0 226 0 q 203 0 190 1 l 136 2 l 81 1 q 68 0 45 0 q 42 0 42 6 q 42 12 45 12 q 72 12 85 18 q 98 23 102 37 q 107 51 107 81 l 107 279 q 107 313 99 328 q 91 343 72 343 q 56 343 18 328 l 16 328 q 12 328 10 332 q 9 337 13 339 l 129 394 q 131 395 135 395 q 144 395 154 372 q 164 349 164 313 l 164 312 q 200 356 236 376 q 272 396 311 396 q 356 396 384 374 q 412 352 419 308 q 456 353 493 374 q 530 396 570 396 q 623 396 652 366 q 680 335 680 275 l 680 81 q 680 51 684 37 q 689 23 702 18 q 715 12 742 12 q 745 12 745 6 q 745 0 742 0 z"},"#":{"x_min":0,"x_max":526,"ha":526,"o":"m 468 295 q 468 288 466 282 q 465 275 463 275 l 390 275 l 361 116 l 428 116 q 430 116 432 110 q 433 103 433 96 q 433 89 432 82 q 430 76 428 76 l 354 76 l 327 -79 q 327 -82 318 -82 q 310 -82 300 -80 q 290 -77 291 -75 l 318 76 l 167 76 l 140 -79 q 140 -82 131 -82 q 123 -82 113 -80 q 103 -77 104 -75 l 131 76 l 63 76 q 61 76 60 82 q 58 89 58 97 q 58 104 59 110 q 60 116 62 116 l 138 116 l 166 275 l 98 275 q 96 275 94 282 q 93 288 93 296 q 93 303 94 308 q 96 314 97 314 l 173 314 l 203 482 q 203 487 221 483 q 239 479 238 475 l 210 314 l 360 314 l 390 482 q 390 484 397 484 q 405 484 416 481 q 426 478 425 475 l 397 314 l 463 314 q 465 314 466 308 q 468 302 468 295 z m 325 116 l 353 275 l 203 275 l 174 116 z"},",":{"x_min":0,"x_max":222,"ha":222,"o":"m 166 -16 q 166 -56 148 -90 q 130 -125 95 -159 q 94 -160 92 -160 q 89 -160 87 -157 q 85 -154 87 -152 q 136 -102 136 -34 q 136 -6 126 7 q 117 -8 95 -8 q 77 -8 66 3 q 56 14 56 31 q 56 71 102 71 q 132 71 149 48 q 166 26 166 -16 z"},"n":{"x_min":0,"x_max":517,"ha":517,"o":"m 495 0 q 472 0 459 1 l 405 2 l 350 1 q 337 0 314 0 q 311 0 311 6 q 311 12 314 12 q 341 12 354 18 q 367 23 372 37 q 376 51 376 81 l 376 243 q 376 302 354 330 q 331 358 284 358 q 253 358 222 342 q 190 325 164 296 l 164 81 q 164 51 168 37 q 173 23 186 18 q 199 12 226 12 q 229 12 229 6 q 229 0 226 0 q 203 0 190 1 l 136 2 l 81 1 q 68 0 45 0 q 42 0 42 6 q 42 12 45 12 q 72 12 85 18 q 98 23 102 37 q 107 51 107 81 l 107 279 q 107 313 99 328 q 91 343 72 343 q 56 343 18 328 l 16 328 q 12 328 10 332 q 9 337 13 339 l 129 394 q 131 395 135 395 q 144 395 154 372 q 164 349 164 313 q 202 357 240 378 q 277 399 317 399 q 373 399 403 368 q 433 337 433 277 l 433 81 q 433 51 438 37 q 442 23 455 18 q 468 12 495 12 q 498 12 498 6 q 498 0 495 0 z"},"h":{"x_min":0,"x_max":499,"ha":499,"o":"m 477 0 q 454 0 440 1 l 386 2 l 332 1 q 318 0 295 0 q 292 0 292 6 q 292 12 295 12 q 322 12 335 18 q 348 23 353 38 q 358 52 358 81 l 358 240 q 358 299 336 328 q 313 356 266 356 q 235 356 203 340 q 171 323 145 294 l 145 81 q 145 52 150 38 q 155 23 168 18 q 181 12 208 12 q 211 12 211 6 q 211 0 208 0 q 185 0 171 1 l 117 2 l 63 1 q 49 0 26 0 q 23 0 23 6 q 23 12 26 12 q 53 12 66 18 q 79 23 84 38 q 89 52 89 81 l 89 598 q 89 634 82 650 q 75 666 57 666 q 42 666 11 652 l 9 652 q 6 652 4 657 q 2 662 6 663 l 133 725 l 136 725 q 140 725 142 722 q 145 720 145 717 l 145 311 q 183 355 220 376 q 258 396 299 396 q 354 396 384 365 q 414 334 414 275 l 414 81 q 414 52 419 38 q 424 23 437 18 q 450 12 477 12 q 480 12 480 6 q 480 0 477 0 z"},"z":{"x_min":0,"x_max":405,"ha":405,"o":"m 281 366 q 285 373 276 373 q 199 373 156 366 q 113 359 89 340 q 65 322 53 284 q 53 282 49 282 q 46 282 44 284 q 41 285 42 286 l 76 415 q 77 417 82 416 q 88 416 87 414 q 86 411 86 406 q 86 394 97 390 q 108 386 135 386 l 347 386 q 351 386 354 382 q 356 378 355 374 l 119 22 q 115 15 124 15 q 222 15 264 21 q 305 27 324 46 q 343 66 358 114 q 359 116 364 116 q 369 116 369 114 l 367 11 q 367 7 364 4 q 362 0 358 0 l 49 0 q 45 0 42 4 q 40 8 42 12 z"},"B":{"x_min":0,"x_max":558,"ha":558,"o":"m 508 184 q 508 131 482 88 q 456 45 410 20 q 365 -4 309 -4 q 276 -4 237 -1 q 223 0 204 1 q 185 2 162 2 l 94 1 q 76 0 43 0 q 41 0 41 6 q 41 12 43 12 q 81 12 99 18 q 117 23 124 37 q 131 51 131 81 l 131 544 q 131 574 124 588 q 118 602 100 608 q 82 613 45 613 q 42 613 42 619 q 42 625 45 625 l 94 624 q 136 622 162 622 q 180 622 196 623 q 211 624 222 625 q 253 628 280 628 q 364 628 406 592 q 448 555 448 496 q 448 448 417 410 q 386 373 332 352 q 411 346 460 300 q 508 253 508 184 z m 195 542 l 195 352 l 240 351 q 313 351 348 388 q 383 426 383 488 q 383 544 352 578 q 322 613 258 613 q 232 613 220 609 q 207 605 201 590 q 195 575 195 542 z m 438 159 q 438 235 394 282 q 349 329 271 330 q 239 331 195 328 l 195 81 q 195 55 202 41 q 210 27 232 20 q 253 14 294 14 q 367 14 402 52 q 438 89 438 159 z"},"K":{"x_min":0,"x_max":650,"ha":650,"o":"m 641 0 l 529 0 q 521 0 500 0 q 480 -1 443 50 q 406 102 372 145 l 219 338 l 186 306 l 186 81 q 186 51 192 36 q 198 22 216 17 q 233 12 271 12 q 274 12 274 6 q 274 0 271 0 q 241 0 223 1 l 153 2 l 85 1 q 67 0 35 0 q 33 0 33 6 q 33 12 35 12 q 73 12 90 17 q 108 22 114 36 q 121 51 121 81 l 121 544 q 121 574 115 588 q 109 602 92 608 q 74 613 36 613 q 34 613 34 619 q 34 625 36 625 l 86 624 q 128 622 153 622 q 182 622 224 624 l 271 625 q 274 625 274 619 q 274 613 271 613 q 234 613 216 607 q 199 601 192 586 q 186 572 186 542 l 186 331 l 400 544 q 433 577 433 593 q 433 613 374 613 q 372 613 372 619 q 372 625 374 625 l 417 624 q 457 622 490 622 q 523 622 559 624 l 596 625 q 599 625 599 619 q 599 613 596 613 q 555 613 509 595 q 463 577 423 538 l 265 383 l 409 199 q 482 104 520 65 q 559 26 580 19 q 601 12 641 12 q 644 12 644 6 q 644 0 641 0 z"},"R":{"x_min":0,"x_max":673,"ha":673,"o":"m 683 0 l 554 0 q 529 0 460 86 q 392 171 294 324 q 270 317 240 317 q 221 317 195 319 l 195 81 q 195 50 201 36 q 207 22 224 17 q 242 12 280 12 q 283 12 283 6 q 283 0 280 0 q 249 0 231 1 l 162 2 l 94 1 q 76 0 43 0 q 41 0 41 6 q 41 12 43 12 q 81 12 99 18 q 117 23 124 37 q 131 51 131 81 l 131 544 q 131 574 124 588 q 118 602 100 608 q 83 613 45 613 q 42 613 42 619 q 42 625 45 625 l 94 624 q 136 622 162 622 q 180 622 196 623 q 212 624 224 625 q 256 628 282 628 q 363 628 407 595 q 451 562 451 503 q 451 455 423 412 q 395 370 349 345 q 434 218 492 146 q 550 75 595 44 q 640 12 683 12 q 685 12 685 6 q 685 0 683 0 z m 254 340 q 323 340 353 370 q 383 399 383 468 q 383 613 261 613 q 234 613 220 608 q 207 604 201 590 q 195 575 195 542 l 195 344 q 220 340 254 340 z"},"T":{"x_min":0,"x_max":634,"ha":634,"o":"m 49 466 q 49 464 44 464 q 38 464 38 466 q 42 502 47 560 q 52 618 52 647 q 52 652 58 652 q 63 652 63 647 q 63 625 117 625 q 202 622 318 622 q 377 622 443 624 l 511 625 q 547 625 564 630 q 582 635 587 650 q 588 654 593 654 q 598 654 598 650 q 595 621 592 562 q 589 503 589 466 q 589 464 583 464 q 577 464 577 466 q 574 544 545 576 q 516 607 449 607 q 404 607 385 603 q 366 599 359 586 q 352 573 352 542 l 352 81 q 352 50 359 36 q 366 22 386 17 q 406 12 449 12 q 452 12 452 6 q 452 0 449 0 q 416 0 396 1 l 318 2 l 243 1 q 223 0 188 0 q 186 0 186 6 q 186 12 188 12 q 231 12 251 17 q 271 22 278 36 q 286 51 286 81 l 286 544 q 286 575 279 588 q 272 600 253 604 q 234 607 189 607 q 126 607 94 575 q 63 543 49 466 z"},"P":{"x_min":0,"x_max":543,"ha":543,"o":"m 311 12 q 314 12 314 6 q 314 0 311 0 q 270 0 247 1 l 160 2 l 93 1 q 74 0 42 0 q 40 0 40 6 q 40 12 42 12 q 80 12 98 17 q 115 22 121 36 q 127 51 127 81 l 127 544 q 127 574 121 588 q 115 602 98 608 q 80 613 42 613 q 40 613 40 619 q 40 625 42 625 l 92 624 q 134 622 159 622 q 184 622 215 625 q 227 625 253 626 q 279 628 298 628 q 390 628 446 587 q 501 546 501 462 q 501 396 468 351 q 436 306 385 284 q 334 262 280 262 q 251 262 232 267 q 229 267 229 272 q 229 275 230 278 q 232 281 234 280 q 250 276 270 276 q 336 276 382 319 q 427 362 427 443 q 427 522 384 568 q 341 613 274 613 q 238 613 222 609 q 206 605 199 590 q 192 576 192 542 l 192 85 q 192 53 200 38 q 209 24 234 18 q 258 12 311 12 z"},"|":{"x_min":0,"x_max":168,"ha":168,"o":"m 66 731 q 66 738 86 738 q 105 738 105 731 l 105 -154 q 105 -158 99 -160 q 93 -162 86 -162 q 78 -162 72 -160 q 66 -158 66 -154 z"},"t":{"x_min":0,"x_max":338,"ha":338,"o":"m 311 52 q 315 52 317 48 q 319 43 316 41 q 279 12 250 0 q 220 -12 188 -12 q 146 -12 119 7 q 92 26 92 70 l 92 305 q 92 331 88 342 q 85 353 75 356 q 65 360 41 360 q 37 360 37 366 q 37 373 41 373 q 81 374 106 394 q 131 415 135 449 q 135 452 143 452 q 150 452 150 449 l 150 375 q 200 376 289 385 q 291 385 294 378 q 296 370 296 361 q 296 353 292 344 q 289 336 285 337 q 230 351 150 353 l 150 104 q 150 63 170 43 q 191 23 229 23 q 275 23 309 51 z"},"M":{"x_min":0,"x_max":836,"ha":836,"o":"m 812 0 q 781 0 763 1 l 694 2 l 630 1 q 614 0 585 0 q 583 0 583 6 q 583 12 585 12 q 619 12 636 18 q 652 23 658 37 q 663 51 661 81 l 643 536 l 415 7 q 413 3 407 3 q 402 3 398 7 l 152 530 l 143 109 q 142 56 161 34 q 180 12 228 12 q 230 12 230 6 q 230 0 228 0 q 200 0 185 1 l 131 2 l 79 1 q 65 0 39 0 q 37 0 37 6 q 37 12 39 12 q 81 12 100 34 q 118 57 119 109 l 128 573 q 98 613 46 613 q 44 613 44 619 q 44 625 46 625 l 83 624 q 93 623 111 623 q 129 623 142 624 q 154 625 161 625 q 174 625 182 616 q 191 606 207 573 l 430 103 l 648 600 q 659 625 678 625 q 683 625 692 624 q 702 623 718 623 l 765 624 q 776 625 798 625 q 801 625 801 619 q 801 613 798 613 q 748 613 726 598 q 705 584 706 544 l 726 81 q 727 50 734 36 q 740 22 757 17 q 774 12 812 12 q 815 12 815 6 q 815 0 812 0 z"},"g":{"x_min":0,"x_max":466,"ha":466,"o":"m 393 392 l 393 -70 q 393 -166 340 -224 q 288 -281 194 -281 q 134 -281 96 -260 q 58 -238 58 -206 q 58 -189 67 -181 q 76 -173 88 -173 q 102 -173 111 -180 q 120 -188 133 -205 q 152 -231 172 -246 q 192 -260 232 -260 q 280 -260 309 -225 q 338 -190 338 -94 l 338 74 q 301 36 263 13 q 225 -10 180 -10 q 119 -10 78 35 q 36 80 36 161 q 36 233 70 287 q 104 341 156 370 q 207 399 259 399 q 315 399 356 369 q 374 379 384 395 q 385 397 389 396 q 393 394 393 392 z m 338 90 l 338 294 q 338 331 306 355 q 274 379 234 379 q 175 379 138 326 q 102 274 102 190 q 102 115 132 69 q 163 23 214 23 q 247 23 278 42 q 308 60 338 90 z"},"j":{"x_min":0,"x_max":257,"ha":257,"o":"m 84 554 q 84 574 96 585 q 107 596 128 596 q 148 596 159 585 q 170 574 170 554 q 170 534 159 523 q 148 512 128 512 q 107 512 96 523 q 84 534 84 554 z m 165 269 l 165 -48 q 165 -116 152 -160 q 138 -203 108 -232 q 78 -261 24 -282 q 22 -283 20 -278 q 17 -272 19 -271 q 68 -250 88 -204 q 108 -158 108 -71 l 108 268 q 108 304 101 320 q 94 336 77 336 q 59 336 31 322 l 30 322 q 25 322 23 327 q 21 332 25 334 l 155 394 l 158 395 q 161 395 164 392 q 167 390 167 387 q 167 380 166 347 q 165 314 165 269 z"},"i":{"x_min":0,"x_max":273,"ha":273,"o":"m 93 554 q 93 574 104 585 q 116 596 137 596 q 157 596 168 585 q 179 574 179 554 q 179 534 168 523 q 157 512 137 512 q 116 512 104 523 q 93 534 93 554 z m 53 12 q 80 12 94 18 q 107 23 112 38 q 117 52 117 81 l 117 268 q 117 304 110 320 q 102 336 84 336 q 66 336 39 322 l 38 322 q 34 322 32 327 q 30 332 33 334 l 163 394 l 167 395 q 169 395 172 392 q 175 390 175 387 q 175 380 174 347 q 173 314 173 269 l 173 81 q 173 51 178 37 q 183 23 196 18 q 209 12 236 12 q 239 12 239 6 q 239 0 236 0 q 213 0 199 1 l 145 2 l 91 1 q 77 0 53 0 q 51 0 51 6 q 51 12 53 12 z"},"y":{"x_min":0,"x_max":485,"ha":485,"o":"m 408 387 l 408 -70 q 408 -165 356 -223 q 304 -281 208 -281 q 153 -281 115 -259 q 77 -237 77 -204 q 77 -189 86 -181 q 95 -173 109 -173 q 122 -173 131 -180 q 140 -188 152 -205 q 171 -231 192 -246 q 212 -260 251 -260 q 297 -260 324 -224 q 352 -188 352 -94 l 352 77 q 313 33 274 12 q 234 -8 192 -8 q 141 -8 114 24 q 86 55 86 115 l 86 268 q 86 307 79 324 q 72 342 56 342 q 42 342 22 332 l 21 332 q 17 332 15 337 q 13 342 17 344 l 128 394 l 132 395 q 135 395 138 392 q 142 390 142 387 l 142 148 q 142 89 163 61 q 184 33 226 33 q 258 33 292 49 q 325 65 352 94 l 352 268 q 352 307 345 324 q 338 342 322 342 q 309 342 289 332 l 288 332 q 284 332 282 337 q 279 342 283 344 l 394 394 l 399 395 q 402 395 405 392 q 408 390 408 387 z"},"@":{"x_min":0,"x_max":719,"ha":719,"o":"m 412 111 q 412 129 414 138 l 424 189 q 389 126 346 88 q 304 49 266 49 q 243 49 229 64 q 215 78 215 109 q 215 122 216 129 q 224 182 257 235 q 290 288 334 322 q 379 355 418 355 q 432 355 444 350 q 457 345 465 334 q 480 347 483 362 q 485 364 491 364 q 501 364 501 361 l 460 137 q 456 115 456 106 q 456 71 493 71 q 521 71 548 91 q 575 111 593 148 q 611 186 611 236 q 611 300 579 354 q 547 407 491 438 q 435 470 366 470 q 290 470 234 433 q 177 396 147 334 q 117 272 117 199 q 117 120 152 60 q 186 0 249 -33 q 312 -66 393 -66 q 441 -66 478 -56 q 514 -46 559 -20 l 560 -20 q 562 -20 564 -24 q 567 -27 565 -28 q 478 -97 361 -97 q 280 -97 215 -64 q 150 -32 112 29 q 74 90 74 173 q 74 264 120 337 q 165 410 240 452 q 314 493 398 493 q 472 493 529 462 q 586 431 617 379 q 648 327 648 265 q 648 209 623 160 q 598 111 556 81 q 515 51 467 51 q 412 51 412 111 z m 439 270 q 440 275 440 285 q 440 306 430 319 q 419 332 398 332 q 373 332 346 308 q 318 285 296 246 q 275 206 268 161 q 265 143 265 129 q 265 89 293 89 q 319 89 350 116 q 380 143 405 186 q 430 228 439 270 z"},".":{"x_min":0,"x_max":197,"ha":197,"o":"m 55 32 q 55 51 67 62 q 79 74 99 74 q 120 74 132 63 q 143 52 143 32 q 143 12 132 0 q 120 -11 99 -11 q 79 -11 67 1 q 55 13 55 32 z"},"p":{"x_min":0,"x_max":511,"ha":511,"o":"m 472 215 q 472 140 438 88 q 404 37 354 12 q 305 -13 257 -13 q 226 -13 202 -7 q 177 -1 151 13 l 151 -194 q 151 -224 158 -238 q 166 -252 187 -258 q 208 -263 251 -263 q 253 -263 253 -269 q 253 -275 251 -275 q 217 -275 197 -274 l 124 -273 l 69 -274 q 55 -275 32 -275 q 29 -275 29 -269 q 29 -263 32 -263 q 59 -263 72 -258 q 85 -252 90 -238 q 95 -224 95 -194 l 95 276 q 95 312 87 328 q 79 343 59 343 q 37 343 6 329 l 4 328 q 0 328 -2 333 q -3 338 0 340 l 111 393 q 113 394 118 394 q 132 394 141 373 q 150 352 151 313 q 236 399 319 399 q 360 399 395 377 q 430 355 451 313 q 472 271 472 215 z m 408 184 q 408 268 371 314 q 334 361 277 361 q 242 361 212 344 q 182 327 151 296 l 151 71 q 178 40 210 24 q 242 8 287 8 q 340 8 374 54 q 408 101 408 184 z"},"X":{"x_min":0,"x_max":652,"ha":652,"o":"m 635 0 q 609 0 594 1 l 539 2 l 462 1 q 444 0 413 0 q 411 0 411 6 q 411 12 413 12 q 440 12 452 16 q 464 20 464 29 q 464 38 455 51 l 303 281 l 176 102 q 152 68 152 47 q 152 12 211 12 q 214 12 214 6 q 214 0 211 0 q 181 0 165 1 l 96 2 l 54 1 q 43 0 17 0 q 14 0 14 6 q 14 12 17 12 q 86 12 153 103 l 294 296 l 133 540 q 107 580 82 596 q 56 613 21 613 q 19 613 19 619 q 19 625 21 625 l 59 624 q 85 622 97 622 q 131 622 179 624 l 231 625 q 234 625 234 619 q 234 613 231 613 q 205 613 192 609 q 180 605 180 595 q 180 587 189 573 l 337 350 l 454 516 q 481 554 481 578 q 481 613 425 613 q 422 613 422 619 q 422 625 425 625 l 470 624 q 508 622 539 622 q 557 622 581 624 l 618 625 q 621 625 621 619 q 621 613 618 613 q 585 613 549 588 q 513 563 477 514 l 346 335 l 513 83 q 539 44 566 28 q 594 12 635 12 q 637 12 637 6 q 637 0 635 0 z"},"*":{"x_min":0,"x_max":448,"ha":448,"o":"m 228 657 q 228 666 248 675 q 267 684 287 687 q 307 690 305 685 l 236 529 q 235 526 230 526 q 226 526 226 529 z m 82 552 q 70 556 70 594 q 70 611 73 624 q 76 638 79 635 l 207 520 q 210 519 208 514 q 206 510 204 511 z m 251 503 q 249 503 248 508 q 246 512 248 513 l 371 551 q 380 554 394 538 q 409 522 418 504 q 428 486 422 486 z m 124 379 q 112 379 94 384 q 77 390 66 396 q 54 403 58 405 l 206 491 l 208 492 q 210 492 212 489 q 215 486 214 485 l 137 383 q 134 379 124 379 z m 233 481 q 232 483 236 486 q 240 490 241 488 l 316 382 q 321 375 310 356 q 299 337 284 322 q 270 308 269 314 z"},"Y":{"x_min":0,"x_max":609,"ha":609,"o":"m 614 613 q 578 613 541 586 q 504 560 475 514 l 341 308 l 341 81 q 341 50 347 36 q 353 22 370 17 q 388 12 426 12 q 429 12 429 6 q 429 0 426 0 q 395 0 378 1 l 308 2 l 239 1 q 221 0 190 0 q 187 0 187 6 q 187 12 190 12 q 228 12 246 17 q 263 22 270 36 q 276 51 276 81 l 276 292 l 110 535 q 82 579 57 596 q 32 613 -1 613 q -4 613 -4 619 q -4 625 -1 625 q 11 625 35 623 l 70 622 q 104 622 156 624 l 210 625 q 212 625 212 619 q 212 613 210 613 q 158 613 158 592 q 158 581 168 567 l 329 331 l 451 518 q 473 553 473 577 q 473 613 419 613 q 417 613 417 619 q 417 625 419 625 l 466 624 q 504 622 536 622 q 553 622 577 624 l 614 625 q 616 625 616 619 q 616 613 614 613 z"},"c":{"x_min":0,"x_max":411,"ha":411,"o":"m 36 185 q 36 249 68 296 q 100 344 150 370 q 201 395 254 395 q 298 395 334 378 q 371 360 371 334 q 371 321 362 312 q 352 302 336 302 q 309 302 292 335 q 279 355 264 365 q 249 375 221 375 q 165 375 134 332 q 102 288 102 215 q 102 131 144 77 q 186 23 270 23 q 331 23 372 56 l 373 56 q 376 56 378 53 q 381 50 379 48 q 344 17 308 2 q 273 -12 231 -12 q 166 -12 122 16 q 78 45 57 90 q 36 135 36 185 z"},"!":{"x_min":0,"x_max":247,"ha":247,"o":"m 124 629 q 141 629 156 626 q 171 624 169 620 q 153 534 145 436 q 137 338 129 189 q 129 186 122 186 q 114 186 114 189 q 109 325 102 429 q 94 533 78 620 q 77 624 92 626 q 107 629 124 629 z m 75 32 q 75 51 87 62 q 99 74 119 74 q 140 74 152 63 q 163 52 163 32 q 163 12 152 0 q 140 -11 119 -11 q 99 -11 87 1 q 75 13 75 32 z"},"/":{"x_min":0,"x_max":341,"ha":341,"o":"m 26 -152 l 278 730 q 280 734 298 728 q 317 723 315 718 l 64 -163 q 63 -167 44 -162 q 25 -156 26 -152 z"},"[":{"x_min":0,"x_max":274,"ha":274,"o":"m 88 715 q 88 722 90 724 q 91 725 97 725 l 236 725 q 239 725 239 719 q 239 713 236 713 q 197 713 178 707 q 160 701 154 686 q 147 672 147 642 l 147 -34 q 147 -64 154 -78 q 160 -93 178 -99 q 197 -105 236 -105 q 239 -105 239 -111 q 239 -117 236 -117 l 97 -117 q 91 -117 90 -115 q 88 -113 88 -106 z"},"6":{"x_min":0,"x_max":490,"ha":490,"o":"m 443 174 q 443 121 418 78 q 393 36 349 12 q 305 -13 250 -13 q 156 -13 108 52 q 60 118 60 227 q 60 326 98 418 q 137 510 209 570 q 281 631 378 636 q 381 636 382 632 q 384 627 380 626 q 299 609 242 551 q 184 493 156 411 q 127 329 127 242 q 127 142 164 74 q 201 6 276 6 q 327 6 352 43 q 377 80 377 146 q 377 221 348 266 q 318 310 267 310 q 220 310 180 270 l 178 269 q 174 269 171 272 q 168 276 169 278 q 193 308 226 324 q 258 340 294 340 q 340 340 374 317 q 407 294 425 256 q 443 218 443 174 z"},"r":{"x_min":0,"x_max":364,"ha":364,"o":"m 337 354 q 337 341 328 332 q 320 323 304 323 q 295 323 288 326 q 282 330 273 337 q 264 345 256 349 q 248 353 237 353 q 224 353 210 342 q 195 332 164 296 l 164 81 q 164 51 172 37 q 179 23 199 18 q 219 12 261 12 q 265 12 265 6 q 265 0 261 0 q 229 0 210 1 l 136 2 l 81 1 q 68 0 45 0 q 42 0 42 6 q 42 12 45 12 q 72 12 85 18 q 98 23 102 37 q 107 51 107 81 l 107 279 q 107 313 99 328 q 91 343 72 343 q 56 343 18 328 l 16 328 q 12 328 10 332 q 9 337 13 339 l 129 394 q 131 395 135 395 q 144 395 154 372 q 164 349 164 313 l 164 312 q 205 360 229 378 q 253 395 275 395 q 297 395 317 383 q 337 371 337 354 z"},"2":{"x_min":0,"x_max":448,"ha":448,"o":"m 32 13 q 70 61 90 84 q 163 173 205 231 q 247 289 276 350 q 305 412 305 468 q 305 527 274 560 q 243 594 187 594 q 137 594 102 566 q 67 537 50 484 q 50 483 46 483 q 38 483 39 487 q 53 558 100 597 q 147 636 216 636 q 288 636 330 594 q 371 553 371 488 q 371 430 339 368 q 307 306 265 254 q 223 202 161 134 q 152 124 130 100 q 107 75 96 59 q 91 52 100 52 q 230 52 284 56 q 338 59 360 74 q 382 88 383 121 q 383 123 388 123 q 394 123 394 121 l 393 11 q 393 7 390 4 q 388 0 384 0 l 40 0 q 35 0 32 5 q 28 10 32 13 z"},"{":{"x_min":0,"x_max":289,"ha":289,"o":"m 32 311 q 80 317 96 376 q 111 434 111 529 q 111 615 122 656 q 133 696 162 710 q 191 725 250 725 q 254 725 254 719 q 254 713 250 713 q 214 713 194 686 q 175 658 174 607 q 172 485 166 435 q 160 385 138 356 q 117 328 64 305 q 116 281 138 252 q 160 222 166 172 q 172 122 174 1 q 175 -50 194 -78 q 214 -105 250 -105 q 254 -105 254 -111 q 254 -117 250 -117 q 190 -117 162 -102 q 133 -88 122 -47 q 111 -6 111 80 q 111 176 96 234 q 80 292 32 298 q 29 298 29 304 q 29 311 32 311 z"},"9":{"x_min":0,"x_max":489,"ha":489,"o":"m 47 457 q 47 510 72 550 q 97 591 141 614 q 185 636 240 636 q 334 636 382 571 q 430 506 430 397 q 430 299 392 206 q 353 114 280 54 q 207 -6 110 -12 q 107 -13 106 -8 q 104 -2 108 -1 q 190 15 248 73 q 305 131 334 212 q 363 294 363 381 q 363 481 326 550 q 289 618 214 618 q 114 618 114 484 q 114 406 147 360 q 180 314 234 314 q 253 314 270 322 q 288 329 310 348 q 311 349 313 349 q 316 349 318 346 q 321 343 320 341 q 278 288 203 288 q 154 288 119 311 q 84 334 66 372 q 47 411 47 457 z"}," ":{"x_min":0,"x_max":234,"ha":234,"o":""},"I":{"x_min":0,"x_max":332,"ha":332,"o":"m 284 12 q 287 12 287 6 q 287 0 284 0 q 254 0 236 1 l 165 2 l 96 1 q 78 0 47 0 q 44 0 44 6 q 44 12 47 12 q 85 12 102 17 q 120 22 126 36 q 133 51 133 81 l 133 544 q 133 574 126 588 q 120 602 102 608 q 85 613 47 613 q 44 613 44 619 q 44 625 47 625 l 96 624 q 138 622 165 622 q 195 622 237 624 l 284 625 q 287 625 287 619 q 287 613 284 613 q 247 613 230 607 q 212 601 206 586 q 199 572 199 542 l 199 81 q 199 51 205 36 q 211 22 228 17 q 246 12 284 12 z"},"H":{"x_min":0,"x_max":759,"ha":759,"o":"m 722 0 q 691 0 673 1 l 604 2 l 531 1 q 513 0 483 0 q 480 0 480 6 q 480 12 483 12 q 522 12 540 17 q 558 22 564 36 q 571 51 571 81 l 571 315 l 187 315 l 187 81 q 187 51 194 36 q 200 22 218 17 q 236 12 275 12 q 277 12 277 6 q 277 0 275 0 q 244 0 226 1 l 154 2 l 85 1 q 67 0 35 0 q 33 0 33 6 q 33 12 35 12 q 73 12 92 17 q 110 22 116 36 q 123 51 123 81 l 123 544 q 123 574 116 588 q 110 602 92 608 q 74 613 36 613 q 34 613 34 619 q 34 625 36 625 l 87 624 q 129 622 154 622 q 183 622 227 624 l 275 625 q 277 625 277 619 q 277 613 275 613 q 237 613 218 607 q 200 601 194 586 q 187 572 187 542 l 187 336 l 571 336 l 571 542 q 571 572 564 586 q 558 601 540 607 q 522 613 483 613 q 480 613 480 619 q 480 625 483 625 l 531 624 q 575 622 604 622 q 631 622 673 624 l 722 625 q 725 625 725 619 q 725 613 722 613 q 684 613 666 608 q 648 602 642 588 q 635 574 635 544 l 635 81 q 635 51 642 36 q 648 22 666 17 q 684 12 722 12 q 725 12 725 6 q 725 0 722 0 z"},"4":{"x_min":0,"x_max":469,"ha":469,"o":"m 422 198 q 422 177 418 177 l 335 180 l 335 81 q 335 51 340 36 q 345 22 360 17 q 375 12 408 12 q 410 12 410 6 q 410 0 408 0 q 382 0 367 1 l 304 2 l 229 1 q 210 0 177 0 q 174 0 174 6 q 174 12 177 12 q 224 12 243 16 q 262 21 268 34 q 274 48 274 81 l 274 182 q 138 184 22 184 q 17 184 14 188 q 12 191 15 195 l 319 630 q 321 632 325 632 q 335 632 335 626 l 335 216 l 418 219 q 422 219 422 198 z m 274 215 l 274 525 l 65 220 q 61 213 70 213 q 158 213 274 215 z"},"~":{"x_min":0,"x_max":443,"ha":443,"o":"m 389 236 l 391 237 q 393 237 395 234 q 397 231 396 229 q 361 184 338 168 q 316 153 290 153 q 271 153 254 158 q 237 162 212 171 q 186 180 168 184 q 150 189 130 189 q 106 189 94 182 q 81 176 70 166 q 60 155 55 151 l 54 151 q 52 151 50 154 q 47 156 48 158 q 105 234 161 234 q 184 234 229 217 q 256 208 274 203 q 293 198 313 198 q 341 198 356 208 q 372 217 389 236 z"},"D":{"x_min":0,"x_max":691,"ha":691,"o":"m 236 -1 q 222 0 200 1 q 179 2 153 2 l 85 1 q 67 0 35 0 q 33 0 33 6 q 33 12 35 12 q 73 12 90 17 q 108 22 114 36 q 121 51 121 81 l 121 544 q 121 574 115 588 q 109 602 92 608 q 74 613 36 613 q 34 613 34 619 q 34 625 36 625 l 86 624 q 128 622 153 622 q 191 622 228 625 q 272 627 289 627 q 393 627 473 587 q 553 547 598 478 q 642 409 642 323 q 642 226 596 152 q 551 77 473 36 q 395 -4 303 -4 q 274 -4 236 -1 z m 566 301 q 566 388 533 459 q 500 530 439 571 q 378 612 298 612 q 255 612 232 607 q 208 602 197 587 q 186 572 186 542 l 186 92 q 186 62 194 45 q 203 28 226 20 q 250 11 293 11 q 373 11 435 44 q 497 78 532 144 q 566 209 566 301 z"},"^":{"x_min":0,"x_max":392,"ha":392,"o":"m 333 379 q 333 377 329 375 q 325 373 324 375 l 196 547 l 68 375 q 67 374 65 374 q 63 374 60 376 q 57 379 58 380 l 185 629 q 186 634 196 634 q 206 634 207 629 l 333 380 z"},"0":{"x_min":0,"x_max":501,"ha":501,"o":"m 47 313 q 47 408 73 482 q 99 555 146 596 q 192 637 253 637 q 312 637 358 596 q 403 555 428 480 q 453 406 453 310 q 453 215 428 142 q 402 68 356 28 q 310 -13 251 -13 q 191 -13 144 28 q 98 69 72 143 q 47 217 47 313 z m 382 298 q 382 458 343 541 q 304 624 242 624 q 182 624 150 542 q 117 460 117 320 q 117 173 156 87 q 195 1 263 1 q 323 1 352 78 q 382 156 382 298 z"},"F":{"x_min":0,"x_max":509,"ha":509,"o":"m 456 493 q 456 490 451 490 q 446 489 445 492 q 442 545 413 574 q 384 604 336 604 l 275 604 q 241 604 224 599 q 207 594 200 581 q 194 568 194 543 l 194 324 l 295 324 q 348 324 370 340 q 393 357 393 394 q 393 396 399 396 q 405 396 405 394 l 404 313 q 404 284 405 269 l 406 221 q 406 219 400 219 q 394 219 394 221 q 394 265 370 284 q 347 303 292 303 l 194 303 l 194 85 q 194 53 202 38 q 211 24 236 18 q 261 12 315 12 q 318 12 318 6 q 318 0 315 0 q 274 0 251 1 l 161 2 l 93 1 q 75 0 42 0 q 40 0 40 6 q 40 12 42 12 q 80 12 98 17 q 116 22 122 36 q 129 51 129 81 l 129 544 q 129 574 122 588 q 116 602 98 608 q 81 613 43 613 q 41 613 41 619 q 41 625 43 625 l 445 625 q 454 625 454 616 z"},"`":{"x_min":0,"x_max":213,"ha":213,"o":"m 50 731 q 63 731 82 726 q 102 720 103 716 l 154 476 q 156 474 150 472 q 145 471 144 474 l 42 727 q 41 731 50 731 z"},"k":{"x_min":0,"x_max":491,"ha":491,"o":"m 483 0 q 460 0 446 1 l 392 2 l 320 1 q 304 0 277 0 q 275 0 275 6 q 275 12 277 12 q 327 12 327 31 q 327 40 318 53 l 195 220 l 145 181 l 145 81 q 145 52 150 38 q 155 23 168 18 q 181 12 208 12 q 211 12 211 6 q 211 0 208 0 q 185 0 171 1 l 117 2 l 63 1 q 49 0 26 0 q 23 0 23 6 q 23 12 26 12 q 53 12 66 18 q 79 23 84 38 q 89 52 89 81 l 89 598 q 89 634 82 650 q 75 666 57 666 q 42 666 11 652 l 9 652 q 6 652 4 657 q 2 662 6 663 l 131 724 l 136 725 q 139 725 142 722 q 145 720 145 717 l 145 197 l 279 305 q 311 330 311 349 q 311 374 254 374 q 251 374 251 380 q 251 386 254 386 q 281 386 295 385 l 368 384 l 435 385 q 448 386 471 386 q 474 386 474 380 q 474 374 471 374 q 434 374 389 356 q 344 338 299 302 l 241 256 l 368 81 q 418 12 483 12 q 486 12 486 6 q 486 0 483 0 z"},"u":{"x_min":0,"x_max":493,"ha":493,"o":"m 487 57 q 491 57 492 52 q 494 48 490 46 l 373 -9 l 369 -10 q 359 -10 350 13 q 341 36 341 73 l 341 77 q 302 33 263 12 q 224 -8 182 -8 q 132 -8 104 24 q 76 55 76 115 l 76 268 q 76 307 69 324 q 62 342 46 342 q 32 342 12 332 l 11 332 q 7 332 5 338 q 3 343 7 344 l 118 394 l 122 395 q 125 395 128 392 q 132 390 132 387 l 132 148 q 132 32 216 32 q 248 32 281 48 q 314 65 341 94 l 341 268 q 341 308 334 325 q 328 342 311 342 q 297 342 277 332 l 276 332 q 272 332 270 338 q 269 343 273 344 l 384 394 l 387 395 q 390 395 394 392 q 397 390 397 387 l 397 107 q 397 73 405 58 q 413 43 432 43 q 449 43 485 57 z"},"]":{"x_min":0,"x_max":274,"ha":274,"o":"m 177 -117 l 38 -117 q 35 -117 35 -111 q 35 -105 38 -105 q 77 -105 96 -99 q 114 -93 120 -78 q 127 -64 127 -34 l 127 642 q 127 672 120 686 q 114 701 96 707 q 77 713 38 713 q 35 713 35 719 q 35 725 38 725 l 177 725 q 183 725 184 724 q 186 722 186 715 l 186 -106 q 186 -113 184 -115 q 183 -117 177 -117 z"},"U":{"x_min":0,"x_max":763,"ha":763,"o":"m 726 0 l 647 1 l 595 0 q 583 0 580 3 q 576 6 576 19 l 576 96 q 513 39 456 14 q 398 -12 331 -12 q 268 -12 218 12 q 167 36 138 81 q 110 126 110 186 l 110 544 q 110 574 104 588 q 98 602 80 608 q 63 613 25 613 q 22 613 22 619 q 22 625 25 625 l 74 624 q 116 622 141 622 q 169 622 213 624 l 260 625 q 262 625 262 619 q 262 613 260 613 q 223 613 205 607 q 187 601 180 586 q 174 572 174 542 l 174 221 q 174 121 224 68 q 273 16 358 16 q 415 16 466 38 q 517 61 576 114 l 576 542 q 576 572 570 586 q 564 601 546 607 q 529 613 491 613 q 488 613 488 619 q 488 625 491 625 l 539 624 q 583 622 609 622 q 635 622 677 624 l 726 625 q 729 625 729 619 q 729 613 726 613 q 688 613 670 608 q 653 602 646 588 q 640 574 640 544 l 640 81 q 640 51 646 36 q 653 22 670 17 q 688 12 726 12 q 729 12 729 6 q 729 0 726 0 z"},"o":{"x_min":0,"x_max":479,"ha":479,"o":"m 36 198 q 36 263 68 308 q 99 354 148 376 q 198 399 249 399 q 308 399 352 370 q 396 341 420 294 q 443 246 443 193 q 443 131 414 84 q 385 38 336 12 q 288 -13 231 -13 q 173 -13 128 16 q 84 44 60 92 q 36 141 36 198 z m 375 165 q 375 227 354 276 q 334 325 298 352 q 262 380 216 380 q 162 380 132 341 q 103 302 103 229 q 103 168 123 117 q 143 66 179 36 q 215 6 260 6 q 315 6 345 45 q 375 84 375 165 z"},"N":{"x_min":0,"x_max":727,"ha":727,"o":"m 704 613 q 662 613 643 590 q 624 567 624 515 l 624 -12 q 624 -14 619 -15 q 614 -16 612 -14 l 152 543 l 143 553 l 143 109 q 143 57 162 34 q 180 12 221 12 q 224 12 224 6 q 224 0 221 0 q 196 0 183 1 l 133 2 l 82 1 q 68 0 41 0 q 39 0 39 6 q 39 12 41 12 q 84 12 102 34 q 120 57 120 109 l 120 577 q 81 613 41 613 q 38 613 38 619 q 38 625 41 625 l 78 624 q 90 623 111 623 q 133 623 147 624 q 161 625 169 625 q 177 625 180 622 q 184 618 192 606 q 204 588 216 573 l 601 100 l 601 515 q 601 567 584 590 q 566 613 525 613 q 523 613 523 619 q 523 625 525 625 l 564 624 q 594 622 613 622 q 631 622 663 624 l 704 625 q 707 625 707 619 q 707 613 704 613 z"},"+":{"x_min":0,"x_max":398,"ha":398,"o":"m 369 190 q 369 183 368 176 q 366 170 364 170 l 219 170 l 219 25 q 219 23 212 22 q 204 20 196 20 q 179 20 179 23 l 179 170 l 34 170 q 32 170 30 176 q 29 183 29 191 q 29 198 30 204 q 32 209 33 209 l 179 209 l 179 354 q 179 356 186 358 q 192 359 199 359 q 206 359 212 358 q 219 356 219 354 l 219 209 l 364 209 q 366 209 368 203 q 369 197 369 190 z"},"G":{"x_min":0,"x_max":714,"ha":714,"o":"m 49 305 q 49 402 98 477 q 148 552 234 594 q 321 636 430 636 q 479 636 524 626 q 568 617 596 600 q 604 595 606 592 q 607 588 608 577 l 620 465 q 620 462 614 462 q 609 461 608 464 q 586 536 528 575 q 471 614 387 614 q 261 614 192 541 q 123 468 123 341 q 123 244 162 168 q 202 91 272 48 q 342 5 429 5 q 480 5 508 14 q 536 23 549 49 q 562 75 562 126 q 562 178 556 198 q 549 219 526 226 q 504 233 449 233 q 443 233 443 241 q 443 244 444 246 q 446 249 448 249 q 526 244 574 244 q 621 244 672 247 q 674 247 676 244 q 677 242 677 240 q 677 233 672 233 q 648 234 638 226 q 628 219 625 196 q 622 173 622 116 q 622 71 626 52 q 629 33 629 28 q 629 22 627 20 q 625 18 618 16 q 497 -12 405 -12 q 296 -12 215 30 q 134 72 92 144 q 49 216 49 305 z"},"q":{"x_min":0,"x_max":488,"ha":488,"o":"m 473 -275 q 448 -275 434 -274 l 380 -273 l 321 -274 q 304 -275 274 -275 q 272 -275 272 -269 q 272 -263 274 -263 q 308 -263 324 -258 q 341 -252 347 -238 q 353 -224 353 -194 l 353 72 q 318 34 279 10 q 240 -13 192 -13 q 150 -13 114 9 q 78 31 57 72 q 36 114 36 171 q 36 250 68 301 q 101 352 150 376 q 200 399 254 399 q 321 399 386 364 l 453 388 l 455 389 q 458 389 459 384 q 460 380 457 379 q 433 365 421 346 q 409 326 409 295 l 409 -194 q 409 -224 414 -238 q 419 -252 432 -258 q 445 -263 473 -263 q 475 -263 475 -269 q 475 -275 473 -275 z m 353 89 l 353 269 q 353 320 316 350 q 280 380 223 380 q 102 380 102 204 q 102 117 136 68 q 170 20 226 20 q 260 20 290 38 q 321 57 353 89 z"},"d":{"x_min":0,"x_max":512,"ha":512,"o":"m 506 57 q 510 57 512 52 q 513 47 510 45 l 400 -7 q 394 -9 392 -9 q 379 -9 370 13 q 361 35 360 74 q 323 35 282 11 q 242 -13 192 -13 q 150 -13 114 11 q 79 35 58 78 q 36 122 36 178 q 36 249 71 299 q 106 349 159 374 q 212 399 264 399 q 317 399 360 373 l 360 597 q 360 633 352 649 q 345 665 327 665 q 314 665 281 651 l 279 651 q 275 651 274 656 q 272 660 275 662 l 402 724 q 404 725 407 725 q 409 725 412 722 q 416 720 416 717 l 416 110 q 416 74 424 58 q 433 42 452 42 q 481 42 504 56 z m 360 90 l 360 310 q 336 343 307 361 q 278 379 237 379 q 174 379 138 334 q 101 290 101 208 q 101 153 118 111 q 135 69 164 46 q 194 23 231 23 q 267 23 298 40 q 329 58 360 90 z"},"1":{"x_min":0,"x_max":391,"ha":391,"o":"m 71 12 q 118 12 141 18 q 164 23 174 37 q 183 51 183 81 l 183 493 q 183 546 156 546 q 131 546 67 498 l 65 497 q 61 497 59 502 q 57 507 61 509 l 228 632 q 233 635 235 635 q 237 635 239 633 q 241 631 241 629 l 241 81 q 241 51 249 36 q 257 22 280 17 q 303 12 352 12 q 354 12 354 6 q 354 0 352 0 q 315 0 294 1 l 212 2 l 131 1 q 109 0 71 0 q 69 0 69 6 q 69 12 71 12 z"},"5":{"x_min":0,"x_max":445,"ha":445,"o":"m 397 188 q 397 93 342 40 q 287 -12 202 -12 q 155 -12 118 6 q 81 25 49 63 l 48 65 q 48 69 52 72 q 56 74 58 71 q 82 43 116 29 q 149 15 187 15 q 258 15 293 60 q 328 104 328 177 q 328 255 289 300 q 250 346 169 346 q 147 346 122 342 q 96 339 80 333 q 75 333 72 336 q 69 340 70 345 l 102 613 q 103 620 105 622 q 107 625 115 625 q 250 625 294 626 q 339 628 352 633 q 366 638 374 654 q 374 656 378 656 q 381 656 384 654 q 386 653 385 651 l 372 585 q 369 574 364 570 q 358 567 345 567 l 138 572 q 125 572 123 558 l 99 359 q 154 375 208 375 q 296 375 346 326 q 397 278 397 188 z"}}}
